<svg xmlns="http://www.w3.org/2000/svg" viewBox="0 0 931 568"><circle cx="284" cy="284" r="284" fill="#cfe2fa" data-name="Ellipse 98" transform="translate(191)"/><g data-name="Group 735"><path fill="#fbbc04" d="M931 412.8l-.2-6.8v-2.4c-.1-1.5-.3-3-.6-4.3a67.2 67.2 0 00-1.6-7.4 27.1 27.1 0 00-2.5-6.4 3.5 3.5 0 01-.2-.5l-2.5-6-4.6-8.2a4.7 4.7 0 00-.6-.9c-1.8-2-3.4-4-5.3-5.9a53 53 0 00-6.7-5.8 47.3 47.3 0 00-8-4.7l-3.4-1.7a2.7 2.7 0 011.2-.3c1.4 0 2.7 0 4-.2l7.2-.7 4.5-.7a.8.8 0 00.4-.2 4.2 4.2 0 001.6-2.3 2 2 0 00-.3-1.2 22.2 22.2 0 00-1.4-2 18.5 18.5 0 00-1.6-2 1.5 1.5 0 01-.5-1c0-.7-9-10.6-9.8-12a1.9 1.9 0 00-.2-.2l-7.5-7.5-4.6-4.7a190 190 0 01-6-6.9c-2.1-2.4-4-5-6-7.4l-7.9-9.3-3.2-3.4-6.1-7.3-2-2.3-5.5-6.8c-1.6-2-3-4.2-5-5.9a8 8 0 01-.9-1l-6.4-7-1.3-1.6-3.7-4c-2-2.1-4.3-4-6.3-6.1a43.1 43.1 0 00-4.9-4.9 3.8 3.8 0 00-2.9-1 1.3 1.3 0 01-.5 0 1.4 1.4 0 00-2 .9 14.2 14.2 0 01-1 2c-.7 1.3-1.6 2.5-2.4 3.7a277 277 0 01-8.8 10.8l-7.8 9.4-2.2 2.7-3.6 4.9a19.4 19.4 0 01-1.7 2 33.2 33.2 0 00-4 5 52.2 52.2 0 01-6.8 8.1l-1.7 1.9c-2.6 3-5 6.4-7.9 9.3-2.4 2.6-4.6 5.5-6.9 8.2a13 13 0 00-.9 1.3 37.6 37.6 0 01-5 6.8.8.8 0 00-.1 0c-1.4 1.9-2.7 3.7-4.2 5.4a102 102 0 00-7.6 9.6 8.9 8.9 0 01-2 2.7 1.5 1.5 0 01-.4-.3l-4.9-6.8-1-1.5-5-6.1-2.6-3.3-3.2-4.1c-2-3-4-6-6.1-8.8-3.3-4.6-6.9-9-9.8-14-1.4-2.3-3-4.6-4.6-6.8l-4-5.4-4-4.9a15.2 15.2 0 01-1-1.3 5.6 5.6 0 00-2.9-2.2c-.8-.3-1.3-.1-2 .6a5.7 5.7 0 01-1 .9l-11.2 7.7-1.5 1a57.3 57.3 0 01-7.3 4.9c-2.6 1.5-5 3.3-7.6 5l-9.7 7-1.5 1c-2.3 1.3-4.7 2.5-7 4l-9.7 6.7c-2.6 1.8-5.2 3.7-8 5.4-2.7 1.6-5.4 3.5-8.1 5.3-3 2-5.9 4.5-9.3 6a4.6 4.6 0 00-.8.5l-6.3 4.8a1.3 1.3 0 00-.5 1.5 1.6 1.6 0 01-.3 1.7.9.9 0 000 1.2c2.5 3.1 4.6 6.5 7.3 9.3l1.3 1.4 4.5 4.4 3 3.5a84.6 84.6 0 016.7 8l1 1.4 5 6.5c1.7 2.6 3.4 5.2 5.3 7.6l8.3 10.9 2 2.9-.2.3-1.7-.7a29.3 29.3 0 00-8.1-1.3c-1.4 0-1.5 0-1.4-1.5v-.3c.1-2.4.5-4.7 0-7a36 36 0 01-.4-3.4 2.6 2.6 0 00-2.4-2.5h-10.7l-5 .2-9.4.2-13 .5-7.9-.3a125.4 125.4 0 00-14 0c-1 .1-2 .4-3.1.3l-9.9-.1h-8.3l-8.9.1c-3 .2-6 0-9 .3-3.7.3-7.5-.2-11.3-.3-1.1 0-2.2-.3-3.4-.3a71 71 0 00-9.6.7 9.6 9.6 0 01-5.7-.8 1.6 1.6 0 00-.7 0 10.4 10.4 0 01-.7 2.4 3.6 3.6 0 00-.4 2.2l.5 8V401.8v4.4l-.2 11.7a30 30 0 00.4 5.2 48.9 48.9 0 002.4 10c1.6 4 3 8.1 5.3 11.8 1.6 2.6 3.2 5.1 5 7.6a50.8 50.8 0 005.5 6.6 46.1 46.1 0 0010.5 8l11.6 6.3a40.4 40.4 0 008.6 3.5 228.4 228.4 0 0015.9 3.9c1 .1 2 0 2.9.2a38.5 38.5 0 0010.4 0l4-.5a42.3 42.3 0 008.9-1.3 45.7 45.7 0 005.4-1.8 45 45 0 005.2-3l6.4-4.3a56.8 56.8 0 004.6-3.8 42.6 42.6 0 006.4-6.6 43.9 43.9 0 005-8.8c.6-1.5.8-1.6 2-1.3a1.8 1.8 0 00.5 0c3-.3 6-.4 8.8-.9a26 26 0 006-1.6l6.7-3a14.8 14.8 0 004.6-3.2 30.7 30.7 0 005.8-8.6c1.2-2.8 2.4-5.6 2.3-8.8v-1.9a31.9 31.9 0 00-.3-7.7l-.4-1.6 6.5 8.3 5.1 7 4.5 6.3 4.5 6.3 3.3 4.8 3.4 4.3 8 10.7c1 1.6 2.3 3.1 3.5 4.7l1.3 2.5 2.7 4.2a39.3 39.3 0 004.5 5.6 2.2 2.2 0 002.5.6 16.8 16.8 0 005.2-3 94.8 94.8 0 018.5-5.6 70.8 70.8 0 009.3-6.4 10.4 10.4 0 011.8-1.4c3-1.5 5.3-3.7 8-5.4l5.8-4.3c1.3-.9 2.8-1.7 4.1-2.7 4.5-3.4 9.5-6.1 14.2-9.2l4.7-3 6.7-5c.1-.2.3-.2.4-.3l8.2-5.8 2.5-1.8c1.4-1 2.9-1.9 4.3-3 1-.6 2-1.4 3-2.2l2.6-1.8.4 4.5a70.6 70.6 0 001.8 11.3c.2 1.2.7 2.3 1 3.5a66 66 0 003.2 9.2 80.6 80.6 0 007.2 12.4c1.6 2.2 3.5 4.2 5.2 6.3a44.5 44.5 0 006.9 6.7 43.4 43.4 0 009.4 5.5l2.3.9a35.9 35.9 0 0012.4 3.6 1.9 1.9 0 011.4.7 1 1 0 001 .2 4.8 4.8 0 012.6-.2l2.2.2h8a22.4 22.4 0 006.8-.7l2.3-.8 6.1-1.3a72.7 72.7 0 007.2-2 48 48 0 006-2.8l10-5.6a31.3 31.3 0 004.2-2.9 41.5 41.5 0 003.5-3.3 69.9 69.9 0 007.1-7.8l2-3 2-3.7 1-2 2.6-5.8a36.5 36.5 0 002.6-7.7l1.4-8a60.7 60.7 0 00.9-11.2zm-287.6 15.5a7.4 7.4 0 01-3.4 2.5 30.6 30.6 0 01-7.6 2.5l-1.5.1 1-4.5c.1-.6.3-1.3.3-2 .5-3.6 1-7.2 1.3-10.8l.6-7.2.2-1.8a.9.9 0 011-1 3.2 3.2 0 011.2.2 18 18 0 015.3 3.5 14.5 14.5 0 013 3.7 8.5 8.5 0 011 3.8 21 21 0 00.3 2.1c.5 3.4-.9 6.2-2.7 8.9zM835 354.4l-1.1 1a21.6 21.6 0 01-3.6 2.6 13.4 13.4 0 00-2.8 2.4l-4.5 4.6a87 87 0 00-8 9.3 48.2 48.2 0 00-6 10c-.6 1.6-1.6 3.1-2.4 4.8l-1.7 4.4-1.7 4.9-2 7.6-.2 1h-.3a15.8 15.8 0 01-4.2-3.8c-1.4-2-3-3.7-4.5-5.6l-6.5-7.7-1.6-1.8-3.6-4.9-2.3-2.5-7-8.6-5.8-7-7.7-9.5-3.2-3.7-1.2-1.7a3.3 3.3 0 01.8-.2 96.4 96.4 0 0110.3.4h4.4l9 .2 10.5.1 7.2.4h14l9.4.3 9 .1 10.3.4a2.7 2.7 0 01.4 0l-3.4 2.5z" data-name="Path 2183"/><path fill="#fbbc04" d="M815 350.6z" data-name="Path 2184"/><path fill="#fde293" d="M915.9 410.4l-.7-5.7a3.7 3.7 0 010-.8 13 13 0 00-.4-4.1l-.3-1.5a21.8 21.8 0 00-.6-2.9 54.2 54.2 0 00-3.6-8.6c-1.2-2.1-2-4.4-3.3-6.4a49.2 49.2 0 00-4-5.1 55 55 0 00-5.5-5 38 38 0 00-12.8-7.2c-3.7-1.2-7.4-2.1-11.2-3.1a5.4 5.4 0 00-2.5-.1c-2 .4-4 .2-6 .4a26 26 0 00-7.6 1.3 32.4 32.4 0 01-3.2 1 38.7 38.7 0 00-7.6 3.5c-1.6.8-2.8 2.2-4.6 2.6l-.3.3-3.5 2.4a16.5 16.5 0 00-3.7 3.3c-2.4 2.7-4.5 5.5-6.7 8.3a4 4 0 00-.7 1.1 12.7 12.7 0 01-2 3.6 10.7 10.7 0 00-1.6 3.1 26.7 26.7 0 01-1.3 2.7c-.6 1.3-1.3 2.5-1.8 3.8-.6 1.5-1 3-1.5 4.6l-1.1 3.6a26.8 26.8 0 00-.6 3 61.1 61.1 0 00-.8 6.8 51.1 51.1 0 00.9 9.8 40.6 40.6 0 001.7 6.8l1.2 3.6a24.8 24.8 0 001.1 2.8l2.3 4.3 1.4 2.3.8 1.2 2.7 3.6 3.7 4.1a29.1 29.1 0 0010.8 7.7 5.9 5.9 0 00.8.2 3.2 3.2 0 01.7.2 23.2 23.2 0 0010 3c1.4 0 3 .3 4.5.4l5.6.2c.3 0 .8.2.8-.5l.5-.2c.4 0 .9 0 1.4-.2l5.8-1 4.9-1.2a35.4 35.4 0 003.5-1c5-2 9.4-4.8 14-7.3a20 20 0 004-2.6c1.8-1.7 3.4-3.6 5-5.4a11.5 11.5 0 001.2-1.3 56.7 56.7 0 005.5-10 43.1 43.1 0 002.6-8.3l.8-4.3a72.4 72.4 0 001.3-11.8z" data-name="Path 2185"/><path fill="#fcc934" d="M516.3 412v2.4c0 2 0 3.9.3 5.8.6 4.6 2.5 8.7 4 13a19.3 19.3 0 002.8 5c1.3 1.7 2.3 3.7 3.7 5.4 1.7 2.2 3.7 4.2 5.6 6.2a2.9 2.9 0 00.6.5l4.8 2.9a413 413 0 007.2 4.1c1.6 1 3.3 1.8 5 2.7a29 29 0 007 2.4c2 .5 4 .8 6.1 1.2a1.4 1.4 0 01.4.2 6 6 0 003.4.7 7.8 7.8 0 011 .2 40.3 40.3 0 004.6.4c2 0 4.1-.2 6.1-.4l5.7-.6a16 16 0 006-1.6c3-1.6 5.7-3.2 8.5-5a41.5 41.5 0 005-4 21.8 21.8 0 004.9-5.8c1.1-2.1 2.2-4.3 3.1-6.5a69 69 0 002.4-7c.4-1.5.6-3.1.9-4.6.4-2.5 1-5 1.3-7.6q1-7.5 1.6-15l.3-8.4-.1-4.1c0-2.2 0-2.3-2.3-2.2l-12.3.4-4.8.1c-4 .5-8 0-12 0l-4.4-.4-6.6.2a34 34 0 00-3.7.2 29 29 0 01-5.8.1 49.8 49.8 0 00-6.7 0 62.3 62.3 0 01-7 0c-1.6-.2-3.2-.2-4.8-.2h-1.6c-3.7.1-7.4.2-11 .5a93 93 0 01-12-.2l-5.4-.3c-1.7 0-1.7.2-1.7 1.9V412z" data-name="Path 2186"/><path fill="#ececee" d="M708.4 318.3l-5.8 4.3-8 6.4-.7.5a82 82 0 01-9.1 6.9l-5.4 3.5c-2 1.2-4 2.4-5.8 3.7l-8.4 5.9-8.3 6.2a22 22 0 00-2.2 1.3c-1.7 1.7-4 2.5-6 4-1 .6-2 1-3 1.7-.9.4-1 .6-.4 1.4q3.9 5.7 8 11l6 8.1c1 1.4 1.9 3 2.9 4.3.7 1 1.6 1.9 2.4 2.8l9 11 7 9.6c1.5 2.2 3 4.4 4.7 6.6l4 5.6c1.6 2 3 4.2 4.5 6.4l5.9 8 5.2 7.1 4.2 5.4 4 5.3c.7.9.7.8 1.6.4a73.5 73.5 0 0010-6.7c2.8-2.1 5.8-4 8.7-6.1l6.7-4.9c1.7-1.2 3.5-2.1 5.1-3.3a160.8 160.8 0 0113.6-8.9c1.4-.9 3-1.6 4.3-2.6l8.3-6.1 2-1.6c2.4-1.7 5-3 7.2-5 1-.7 1-.8.3-1.7l-8.1-9.6-5.1-6.1-3.9-4.8-3.2-3.7-2.4-3.2-6-7c-3.1-4-6.3-7.8-9.5-11.7l-9-10.6-3.4-4.7-6.7-9.2-4.2-5.7L711 322l-2.7-3.7z" data-name="Path 2187"/><path fill="#fcc934" d="M821.5 264.9l-1.9 2-1.5 2.1-.4.6-5.6 6.7-4.4 5.4a20.7 20.7 0 00-1.8 2.2 41.3 41.3 0 01-4.7 6.1l-3.7 4.3-1.6 2.2a14.2 14.2 0 01-1.7 2.1c-2.5 2.2-4.3 4.8-6.5 7.1l-.2.3-3 3.5-2.5 2.8-1.4 2.2a63.9 63.9 0 00-4.7 5.8c-1 1.7-2 3.8-3.8 5-.2 0-.3.4-.5.6l-5 6a28.4 28.4 0 00-1.8 2.3H773.5l18.5.5c2.5 0 5-.2 7.5-.1 4.2 0 8.5 0 12.7.2 4 .3 8 0 12 .2l10.2.3H856.7l18.2-.2h5.7a17.6 17.6 0 001.8-.2 9 9 0 00-.6-.8l-2.7-2.8c-3.3-3.6-6.7-7-9.9-10.7l-10.7-12.8-5.8-6.7-2-2.6-7.5-9-5.4-6.8-5.6-6.2-8-9-2.7-2.6z" data-name="Path 2188"/><path fill="#ececee" d="M690 292a41.4 41.4 0 00-4.1 2.7 70.7 70.7 0 01-5.7 4.2l-9.7 6.3c-.6.3-1.1.8-1.7 1.2l-6 4c-1.6 1.1-3.3 2.3-5 3.3l-4.7 2.8c-2 1.2-3.7 2.6-5.6 4l-3 1.8-4.2 3-8.9 6a33.5 33.5 0 00-3.3 2 29.4 29.4 0 01-4.6 3.4 5 5 0 00-.6.4l12.5 13.8.9-.5 5-3.4 6.7-4.5c3.8-2.7 7.5-5.6 11.3-8.4l2.5-1.9 12.8-8a63 63 0 009.5-7 18.5 18.5 0 011.7-1.3l1.7-1.3 6.6-5.1 5-3.7c-2.8-4.8-5.9-9.3-9.1-13.8z" data-name="Path 2189"/><path fill="#fbbc04" d="M618.7 351.7z" data-name="Path 2190"/><path fill="#fbbc04" d="M593.4 383v.1h.1-.1z" data-name="Path 2191"/><path fill="#fbbc04" d="M487.5 403s.1 0 0 0a1 1 0 000-.2 1 1 0 000 .2z" data-name="Path 2192"/><path fill="#fbbc04" d="M707.4 450.8v0z" data-name="Path 2193"/><path fill="#fbbc04" d="M525.3 348.7a24.7 24.7 0 012.7-9.2c1.5-3.2 3.1-6.4 4.4-9.8a11.3 11.3 0 00.6-2.6 3.3 3.3 0 00-.6-2.6 9.6 9.6 0 01-1.2-2 6.8 6.8 0 00-2.5-2.8l-2.1-1.5c-.9-.6-.9-.8-.5-1.7.5-1.3 1.7-2 2.7-2.6l3-2a27.9 27.9 0 015.6-2.7 1.5 1.5 0 011.5.2c2 1.2 4 2.4 5.4 4.3a18.3 18.3 0 012.9 6 37.8 37.8 0 011.2 6.4 13.5 13.5 0 01-.4 4.2 35.3 35.3 0 01-1.4 5.3c-.6 1.7-1.6 3.2-2.4 4.8l-2.4 5.1a6.2 6.2 0 00-.3 3.7 2 2 0 00.3.8 41.2 41.2 0 003.5 4.7 19.4 19.4 0 012 2.7 1 1 0 01-.2 1.3 12 12 0 01-3.4 2.5l-3 1.6-3.5 1.7a9.3 9.3 0 01-3.1.9.8.8 0 01-1-.4c-.8-1.3-1.7-2.5-2.7-3.8a24.7 24.7 0 00-1.7-2 13.3 13.3 0 01-3-7l-.4-3.5z" data-name="Path 2194"/><path fill="#fbbc04" d="M568.4 342.7a36.2 36.2 0 011.3-8.4c.4-1.7 1-3.3 1.5-5a12.5 12.5 0 00-1-10.2 33.8 33.8 0 00-3.5-4.5c-.8-1-.8-1.5 0-2.4a7.7 7.7 0 012.8-1.8l1.4-.7a62.3 62.3 0 018-3.1 1.6 1.6 0 011.8.4 28.7 28.7 0 012.4 2.8 26.1 26.1 0 014.4 11.4 17.4 17.4 0 01-.4 5.8c-.4 2.1-1 4.2-1.6 6.3a26.4 26.4 0 00-1.2 8.5 12.2 12.2 0 002.4 6.5 25 25 0 003 3 1.6 1.6 0 01.2 2.4l-1.6 1.3-3.3 2.6-3 2-2.3 1.6a2.1 2.1 0 01-3-.4 38 38 0 01-4.6-5.3 22.5 22.5 0 01-2.5-5.7 20 20 0 01-1.2-7z" data-name="Path 2195"/><path fill="#fbbc04" d="M724.7 355.5a4.8 4.8 0 011 .7l2.7 3c1.7 1.8 3.6 3.5 5.2 5.3a54.4 54.4 0 016.4 8c2.2 3.6 4.4 7.2 6.8 10.6 2 3 4.3 6 6.4 9 .9 1.2 1.7 2.6 2.5 3.9l4.2 5.9a1.8 1.8 0 01-.2 2.5 53.4 53.4 0 01-6.6 6 47.7 47.7 0 01-6 4l-1 .8-8.1 5.1a5.4 5.4 0 00-.7.4c-2 1.8-4.4 3-6.7 4.4-1.4.9-3 1.6-4.3 2.5-2.7 1.5-5.3 3.1-7.8 4.9a8.9 8.9 0 01-4 1.9c-.5 0-1.2.6-1.5.4a5.7 5.7 0 01-1.5-1.5l-1.6-2c-2.5-3.5-5.1-6.8-7.5-10.3-2.3-3.3-4.8-6.5-7.2-9.8-2.9-3.7-5.4-7.6-8.2-11.3l-4.8-5.9a75 75 0 01-3.5-5c-.8-1-.6-1.5.5-2.3l3.4-2.5 4-3a8.6 8.6 0 001-.8 26.1 26.1 0 015.6-4.5c2.2-1.2 4.2-3 6.3-4.4l2.6-1.7.7-.4 7.5-5.8c3.3-2.5 6.4-5.2 10-7.2a5.1 5.1 0 011.5-.5l2.2-.3h.7z" data-name="Path 2196"/><path fill="#fbbc04" d="M673 361.7l-.9 8.3-.3 3.2a1.4 1.4 0 01-.4.8 3.8 3.8 0 01-2.7 1l-10-1.1c-1.2-.2-1.5-.6-1.4-1.9a42.7 42.7 0 012.5-11.8c.2-.3.2-.7.3-1.1.1-.5.3-.9 1-.9l3.6.1 7.4.8c1 .1 1 .3 1 1.3v.6l-.1.7z" data-name="Path 2197"/><path fill="#fbbc04" d="M717 337.8a1.4 1.4 0 011.3.8 1.7 1.7 0 01-.2 2 20.9 20.9 0 01-1.8 1.7l-5.1 4.2a36.3 36.3 0 01-3 2 1.5 1.5 0 01-1.7.2c-1-.6-1.2-1.1-.6-2.1a18 18 0 013.7-3.8l4.1-3.5a5 5 0 01.8-.5l1.6-.9a3.6 3.6 0 01.8-.1z" data-name="Path 2198"/><path fill="#fbbc04" d="M701.8 343.5a1.9 1.9 0 01.2-2.3 60.9 60.9 0 018.2-7.4 8.2 8.2 0 011-.6 1.2 1.2 0 011.8.5c.7 1.3.7 1.6-.3 2.7a12.8 12.8 0 01-1.3 1.2 68.3 68.3 0 01-7.7 5.4 8.6 8.6 0 01-1.9.5z" data-name="Path 2199"/><path fill="#fbbc04" d="M696.3 337a7.5 7.5 0 011-1c1.9-2 3.9-3.1 5.8-5 .7-.7 3-2.3 3.8-3h.5a9.4 9.4 0 011.3 1.3.9.9 0 010 1.2l-3.1 2.5a47.4 47.4 0 01-7.4 5.9c-.5.3-1.5-1.5-2-1.8z" data-name="Path 2200"/><path fill="#fbbc04" d="M656.8 328l-1.5-1-.5-.8c-.5-.6-.2-1 .2-1.4l3-2.8 1.6-1.3 1.5-1.6a39.3 39.3 0 013.2-2.6 7.6 7.6 0 012.2-1 1 1 0 01.9.4 22.8 22.8 0 011.5 2.7c.3.6 0 1-.5 1.5-1.5 1-2.8 2.2-4.3 3.3l-6 4a9.3 9.3 0 01-1.3.7z" data-name="Path 2201"/><g fill="#fde293" data-name="Group 523"><path d="M717.5 392.9c1.4-5.8 1.6-11.5 2-17.6l-.9.7a14.4 14.4 0 01-2.3 2.2 30.2 30.2 0 00-4.6 3.5 18 18 0 01-2 1.3 4 4 0 00-1 .7 16.4 16.4 0 01-3.8 3 26.7 26.7 0 00-2.5 2 2.5 2.5 0 00-.4.5c1.2.6 13.3 3.5 15.5 3.7z" data-name="Path 2202"/><path d="M724.4 379a7 7 0 00-.3.9l-.5 4-1.4 9c-.2 1.2-.2 1.2 1 1.5l12.7 3.3 1.2.2-12.2-18.5a2.6 2.6 0 00-.5-.4z" data-name="Path 2203"/><path d="M735.7 402.6a74.4 74.4 0 00-14.2-3.5c-1 4-1.2 8.3-1.7 12.5l.2.7c5.5-3 10.4-6.5 15.7-9.7z" data-name="Path 2204"/><path d="M703.4 394.5a4.5 4.5 0 00.3.8c1.3 2 2.5 4 4 6 2 2.6 4.3 5 6 8a11.6 11.6 0 001.2 1.3l.3-1.7.8-5.9.7-4.6c.1-.9 0-1-.8-1.2l-11.2-2.6a10.9 10.9 0 00-1.3-.1z" data-name="Path 2205"/></g></g><g data-name="Group 734"><path fill="#ea4335" d="M263 412.8a19.5 19.5 0 00-3.6-.3 16.2 16.2 0 01-7.5-1.4l-7.7-3.6c-.3 0-.5-.2-.8-.3a8.2 8.2 0 00-.8.7c-3.1 3.6-6.9 6.6-10 10.2l.1.3 3.1 3.8 3 3.4a1.5 1.5 0 01.6 1.3 19.4 19.4 0 00-3.4 2l-3.9 3.9-4.9 5.3c-.8.9-1.8 1.6-2.6 2.4l-5 4.8c-1 .8-1.7 1.7-2.5 2.5l-3.3 3.4a146 146 0 01-6.8 6.4l-1.2 1-4.7 4c-2.1 2.6-4.8 4.5-7.1 6.8l-2.8 2.6a20 20 0 00-2.2 2 21.5 21.5 0 01-2.4 2.3 1.3 1.3 0 01-2-.2c-2.1-2.3-4.4-4.5-6.4-6.9l-5.3-5.6-3.2-3.7-1.8-2-.7-.7a1.6 1.6 0 010-2.5l1.5-1.3 4.4-4.3a62.9 62.9 0 015.9-5.7c.1-.1.3-.3.5-.3.6 0 1-.4 1.4-.8a43.4 43.4 0 004.5-4.4l3.7-4 4.1-4.4 4.9-4.7 1.7-1.8 2-1.9a59.2 59.2 0 005-4.7c1.5-1.7 3.1-3.4 4.8-5 1.2-1.4 2.6-2.5 3.9-3.8l2.7-3c.7-.9 1-.6 2.2 1l1.7 2a23.6 23.6 0 003.5 3.5 66.8 66.8 0 0010.2-9.6 4.2 4.2 0 00-.5-.7 23.3 23.3 0 01-4.3-5.5 24.6 24.6 0 01-2.6-4.8 63.3 63.3 0 01-2.3-7.5 13 13 0 01-.3-4.4v-3.2a13 13 0 01.5-2.6 34.6 34.6 0 014.3-10 5.2 5.2 0 00.5-1 10 10 0 011.8-3.3l3.3-3.5a40.5 40.5 0 016.3-4.6c1.9-.6 3.5-1.9 5.2-2.8a16.4 16.4 0 013-1 27 27 0 015.5-1.3c1.4 0 2.8-.2 4.3-.1a29.7 29.7 0 018.3 1.5 45.1 45.1 0 018.5 3.5 17 17 0 012 1.2c2.2 1.4 4.3 2.8 6.3 4.3a17.7 17.7 0 015.5 6.5c.7 1.2 1.2 2.5 1.8 3.7a23.5 23.5 0 011.8 6.6 38 38 0 01.4 7.2 32.6 32.6 0 01-2 8.6 44.6 44.6 0 01-3 7.2 25 25 0 01-6.4 7.9 38.5 38.5 0 00-3.5 3.2 8.4 8.4 0 01-2 1.4l-3.5 2a8.8 8.8 0 01-1.8.7l-4 1c-.2 0-.2.2-.5.4l3 .1 2.5.2a42.1 42.1 0 009.1.2l2.2-.2h6.2l4-.2c2.5 0 5-.3 7.4-.4l3.3-.1 8.4-.3c2.5-.2 5-.2 7.6-.3 3.6 0 7.3-.1 11-.4 3-.2 6.2-.3 9.3-.2a2.5 2.5 0 001.6-.4 2.6 2.6 0 011.2-.4 23 23 0 016.2-.2c.9.1 1.1.3 1.3 1.2a4.2 4.2 0 010 1c-.2 3.2-.4 6.3-.3 9.4V432c0 2.2.2 4.5.1 6.7-.2 3.6 0 7.2-.1 10.8l-.3 9.6V470.2a77.3 77.3 0 00.2 8.6 3 3 0 010 .3 1.3 1.3 0 01-1.3 1.5l-4.8.3-.9.2a4.3 4.3 0 01-1.9-.1 5.1 5.1 0 00-1-.2h-5.8a4.4 4.4 0 01-1 0 18.2 18.2 0 00-4.6-.2h-7a69 69 0 01-7.9-.2 14 14 0 00-2.4 0 61.5 61.5 0 01-6.5-.1h-5.5a64.5 64.5 0 00-8.4-.2l-3.4.3h-4.1l-3.8-.2h-7.5a78.2 78.2 0 01-10.3 0 .9.9 0 01-.9-.7 10 10 0 01-.7-3.8 19.6 19.6 0 01.1-3.5 9 9 0 000-2.2c-.1-3.6 0-7.3.1-11v-10.2l-.3-15.7-.1-9.8-.3-5.5a7.6 7.6 0 01.7-4.4 2.5 2.5 0 00.1-.6z" data-name="Path 2167"/><path fill="#ff7174" d="M271.1 421a27.5 27.5 0 00.2 4.9 74.7 74.7 0 01.6 8.8l.2 9.2a355 355 0 010 9.6v7.3a111 111 0 00-.2 9.5 9 9 0 00.2 1.3 1.5 1.5 0 00.3.1 6.2 6.2 0 00.8 0 76 76 0 0111 0 21.8 21.8 0 004.1 0 39.6 39.6 0 014.3-.3h12.1l2.4.1 3.6.2a47.3 47.3 0 016.5.1l6.5-.1h5.1c3.4 0 6.7.1 10.1.3h3.4c.7 0 .8-.2.8-.9l.2-6.2v-5.4l.3-18-.1-6v-4.2a91 91 0 000-10.9 6 6 0 00-.3-.9h-2.7l-3-.1a8.4 8.4 0 00-2.3.1 29.1 29.1 0 01-5.6.3h-2.3c-1.7.2-3.4.4-5 .4-3.3 0-6.5.3-9.7.4-2.7 0-5.5 0-8.2.2-3.2 0-6.5.3-9.7.4-4.5 0-9.1-.1-13.7.3a29 29 0 01-8-.5 10.5 10.5 0 00-1.9 0z" data-name="Path 2168"/><path fill="#ff7174" d="M261.1 403.8c1.5-.2 3-.2 4.4-.5 2-.3 3.8-.8 5.8-1.2a2.3 2.3 0 00.7-.2 14.7 14.7 0 003.6-2.7 35.4 35.4 0 013.2-3 19.6 19.6 0 005.3-8.4 82 82 0 002-7.2 22.5 22.5 0 000-9.5 39.4 39.4 0 00-2.2-5 19.9 19.9 0 00-3.7-4.6 19 19 0 00-3.5-2.5 49.7 49.7 0 00-6.2-3.2l-4.8-1.6a32 32 0 00-5.2-1c-1.8.4-3.7.7-5.5 1.2a37.9 37.9 0 00-8.1 3 23.4 23.4 0 00-8.4 7.5 32 32 0 00-3.4 7 12.7 12.7 0 00-.5 2.5l-.2 2a14.5 14.5 0 000 3.2l.8 3.2a21.3 21.3 0 003.4 8l.1.3a19.5 19.5 0 002.8 3.4l3.9 3.4a8.1 8.1 0 001.6 1c2.5 1.4 5.1 2.6 7.8 3.6a18.9 18.9 0 006.3 1.3z" data-name="Path 2169"/><path fill="#ff3242" d="M226.8 425.4l-.8-1-4.7-5.1a32 32 0 00-2.4-2.3 1.3 1.3 0 00-1.1.5l-5.1 5.6a32.6 32.6 0 01-3.6 3.5 26.8 26.8 0 00-3.8 3.5c-.7.9-1.6 1.6-2.4 2.4l-4.5 4.3-3.8 3.9-1.5 1.5c-1.2 1.3-2.3 2.8-3.7 4a38.3 38.3 0 00-5 4.8 12.3 12.3 0 00-3 3.3 3.9 3.9 0 00-2.8 2.4l.8 1 4.7 4.9 1.6 1.5a4.2 4.2 0 00.6.5 2.2 2.2 0 00.3-.2l4.6-4.5a27 27 0 003.3-3.3 4.6 4.6 0 01.7-.7l6.4-5.3 1.8-1.6 4-4 .8-.8c1.2-1.2 2.5-2.3 3.6-3.6 2.3-2.7 5-5 7.6-7.6l1.6-1.3a16.4 16.4 0 001.4-1.3l3.6-4 .8-1z" data-name="Path 2170"/><path fill="#ea4335" d="M319.8 428l-1.4 2.8-.8 1.6-3.4 8.2c-.7 1.8-1.5 3.5-2.4 5.2a93 93 0 00-2 4.2c-1 2-1.8 4.1-2.7 6.2l-3.4 7.5a7.2 7.2 0 00-.4.8 1.3 1.3 0 01-1.5 1 53.2 53.2 0 01-5.6 0 2.8 2.8 0 01-1.8-.9 5.1 5.1 0 01.6-2l4.7-10.8c1.4-3.3 3-6.5 4.5-9.7l2.3-5c1-2.5 2.2-5 3.4-7.3a13.3 13.3 0 011.6-2.3 1.4 1.4 0 011.6-.5 24.6 24.6 0 004.7.3 2.8 2.8 0 012 .6z" data-name="Path 2171"/><path fill="#ea4335" d="M289.3 447.4l1.3 2.1 3.9 5.4c.7 1.3.2 2-.8 2.5a12.2 12.2 0 01-2.4.7 20 20 0 01-2.4.3h-2.2c-.3-.3-.5-.8-.7-1.2l-1.9-2.6-3.1-4.4a4.5 4.5 0 00-.7-.8 2 2 0 01-.7-2c1.1-.6 1.6-1.9 2.2-3l2.5-5 1.8-3a73 73 0 002.5-4.6 2.3 2.3 0 012.2-1.5h4.9a4.5 4.5 0 011 .2 1 1 0 01.8 1.2 6.2 6.2 0 01-.4 1.2 39 39 0 01-3.2 5.8 50 50 0 00-3.3 5.9l-1.3 2.8z" data-name="Path 2172"/><path fill="#ea4335" d="M137.3 413.6l12.5-.1c2.6 0 5.2 0 7.8-.3 1.4-.2 2.8-.5 4.2-.5l2.9-.1a3.2 3.2 0 01.3 0c1.5.2 2 .5 2 1.5v4.5l.3 2.8.1 4.3.3 6 .2 11 .2 7.2c0 2.9-.1 5.8 0 8.7 0 5.4.2 10.8.8 16.1a25.8 25.8 0 01.1 3c0 1-.2 1-1 1.1-2.1.4-4.2 0-6.2 0H150l-2 .2a8.8 8.8 0 01-1.3 0c-2.6-.1-5.3.3-8 .3l-7 .2-8.5.3c-1.2 0-1.7-.3-1.8-1.5V475c0-6.2.1-12.4-.1-18.5l-.6-20.5.2-8.5.1-9.4.1-2.6c0-.8.4-1.1 1.1-1.2l7-.7 8-.1z" data-name="Path 2173"/><path fill="#ff7174" d="M130.6 470.5h1.2l8.9-.3 8.3-.4h7l2.7-.2a.7.7 0 00.7-.8v-1a128 128 0 01-.2-4.8l-.2-6.3.1-7.2-.2-6.6v-5.3l-.5-13.9-.1-1.2H157l-5.9.1h-9.7l-9.5.1-1.9.1v1.4l-.1 4c-.2 4-.2 8-.1 12 0 3.3.2 6.5.3 9.7l.2 7.6a106.8 106.8 0 010 10.8 12.7 12.7 0 00.2 2.2z" data-name="Path 2174"/><path fill="#ea4335" d="M31.6 480.9a34.7 34.7 0 01-5-.7 25 25 0 01-6.4-2.2c-.8-.5-1.8-.7-2.7-1.3a50.2 50.2 0 01-4.4-2.8L9.6 471a18.2 18.2 0 01-4-5L4 463.9a10.9 10.9 0 01-1.3-2.6l-1-1.9a30.7 30.7 0 01-1.6-11.9c0-1.3 0-2.5.2-3.8a15.7 15.7 0 01.8-3.2 26 26 0 013-6.4 33.3 33.3 0 017.4-7.7l4-2.8a6 6 0 011.2-.5l4.4-1.7a19.2 19.2 0 014.4-.8l2.4-.5 1.7-.2a18.3 18.3 0 012.4-.2l3.4.3 4.1.6a29.5 29.5 0 019.5 4 20.9 20.9 0 014.7 4.2 35 35 0 015.3 7.9 25 25 0 012.8 10.2c0 2.3.2 4.6.1 6.8a23 23 0 01-1.8 8 33 33 0 01-4.6 8.2 19.7 19.7 0 01-3.2 3.2 42.6 42.6 0 01-7.9 5.4 19.5 19.5 0 01-9 2.3l-3.8.2z" data-name="Path 2175"/><path fill="#ff7174" d="M53.3 450.4a46.2 46.2 0 00-.5-5.7 20 20 0 00-4.3-9l-3.9-4.2a6.6 6.6 0 00-2.3-1.6 42.4 42.4 0 00-6-1.6 1.6 1.6 0 00-1.3.2 5.7 5.7 0 01-2.8.7 29 29 0 00-7.9.8 18.6 18.6 0 00-6.9 3 34.1 34.1 0 00-4.8 4.7 12.6 12.6 0 00-2.5 6.4 27.3 27.3 0 002.7 16.3 9.5 9.5 0 002.8 3.4l7.5 5.4a26.2 26.2 0 007.9 2.3 4.5 4.5 0 002.8-.5 5.4 5.4 0 012.2-.6l1.2-.2a21.1 21.1 0 005.5-1.6 12.3 12.3 0 005.1-3.3 19.6 19.6 0 003.4-5.3c1.2-3 2.5-6.1 2.1-9.6z" data-name="Path 2176"/><path fill="#ea4335" d="M90.8 457.6l.2 7.8c0 1.6.1 4.1.3 5.7a26.2 26.2 0 01-.3 6v1c0 .5-.4.8-.9.5a5.3 5.3 0 01-1.4-1.2c-1.4-1.8-2.7-3.8-4.2-5.6l-1.5-1.9a50 50 0 01-5-6.7 131.2 131.2 0 00-7.7-10.8l-3.2-4.2-4-5.3-7.6-10L49 424l-5-6.4-2.7-3.6-5-6.6-3-3.9-.4-.4c-.9-1.2-.8-1.9.3-2.9l7.7-6.3 2.9-2 4.5-3.4 4.3-3.1 4.7-3.8 7.6-5.8 9.5-7 5.5-4.4c2.4-2 4.9-3.7 7.3-5.6l12.7-9.4a46 46 0 003.5-3.2 47.9 47.9 0 013.7-3.3c1-.7 1.6-.7 2.4.3l8.7 9.8 3.5 4.2 6.4 7.6 3.2 4.2 7.4 9.5c.8 1 1.5 2.2 2.4 3.2l7 9.4 2 2.5c.7.9.6 1.1-.2 1.9l-4.7 4.2-1.6 1-7.4 5.6-2.8 2-4.5 3.7-5.2 3.7c-.7.5-1.3 1-2 1.3-2.4 1.7-4.7 3.7-7 5.6l-6 4.6-6.5 5.3a81.4 81.4 0 01-10.9 7.4 1.5 1.5 0 00-.9 1.5 158.7 158.7 0 01.3 12.3v4z" data-name="Path 2177"/><path fill="#fff" d="M44 402.8L81.2 452l.4.2a6.5 6.5 0 00.1-.9l-.2-10.4c0-1.2-.3-2.4-.3-3.7a1.9 1.9 0 01.2-.9 1.9 1.9 0 01.6-.6l4.6-3.3c2.7-1.8 5.5-3.5 8-5.5l9.8-7.7 5.7-4.6 8.1-6.1 5.7-4.3 8.5-6.7 4.9-3.8a5.2 5.2 0 00.6-.8l-.8-1.2-2.4-3-6.4-8.5-7-9-3-4-4.6-5.4-5.7-6.4a4.3 4.3 0 00-.6-.5l-2.6 2-3.7 3c-4.8 3.4-9.6 6.7-14.2 10.4l-9.8 7.6-4.1 3-7.8 5.8c-2.8 2.2-5.5 4.6-8.6 6.6a16.5 16.5 0 00-2.1 1.7 51.7 51.7 0 01-6.8 5c-1.2.7-2.2 1.6-3.3 2.4a2.1 2.1 0 00-.4.4z" data-name="Path 2178"/><path fill="#ea4335" d="M72.3 420.7l-1.6-.2a5.1 5.1 0 01-3.6-2 12 12 0 01-2.8-6.8 7.6 7.6 0 011.4-5.4 9.8 9.8 0 011.2-1.1l1.2-1a4.8 4.8 0 013.6-1 11.1 11.1 0 014.8 1.5 6.6 6.6 0 013.2 4.5 12.8 12.8 0 010 5.5 3.7 3.7 0 01-1 2 1.5 1.5 0 00-.5 1 2.4 2.4 0 01-1.7 2.2 11.8 11.8 0 01-4.2.8z" data-name="Path 2179"/><path fill="#ea4335" d="M103.5 388.3l-.5-1.4a11 11 0 01-1-7.9 4 4 0 011-1.7c.5-.5 1.4-2.4 1.7-2a.8.8 0 001.1.2l1.5-.8a3 3 0 011.8-.4 7.1 7.1 0 015.3 2.4c.5.6 1.8 1.4 1.8 1.6a1 1 0 000 1.1l.5.8c1.4 2 1.2 4 .2 6a5 5 0 01-.8 1.3 3.8 3.8 0 00-1 1.5 1.4 1.4 0 01-.5.8 8.2 8.2 0 01-9.7-.6l-1.4-1z" data-name="Path 2180"/><path fill="#ea4335" d="M96.7 403.5l-1.8.6a28.7 28.7 0 01-3.2 1 6.4 6.4 0 01-5.5-1.6l-1.2-1a2 2 0 01-.5-.6l-.5-1.5a9 9 0 011.5-9.6l.4-.4c1.3-.3 2.3-1.2 3.6-1.3a10.3 10.3 0 013.8.3 7.7 7.7 0 013.4 2 2.6 2.6 0 00.6.6c.6.3 1 .6.8 1.4 0 .3.3.6.4.9a7.7 7.7 0 01.7 4.7 3.4 3.4 0 01-1.6 2.5c-.7.5-1.2 1-1 2z" data-name="Path 2181"/><path fill="#ea4335" d="M323.8 462.3a26.4 26.4 0 01-5-1 2.8 2.8 0 01-.6-.2 1.3 1.3 0 01-.7-2 5 5 0 01.3-.5l5-8.8c.8-1.2 1.4-2.5 2-3.7a1.4 1.4 0 000-1.6L323 442l-4.4-6c-.4-.8-.3-1.2.5-1.6a16.4 16.4 0 017-1.4 1.4 1.4 0 011.2.7l2 2.7 2.3 3.3 2.6 4.1a3 3 0 010 3.1l-1.9 3.8-2.6 4.5-3.4 6a5.9 5.9 0 00-.4.5 1.2 1.2 0 01-1.2.7h-.9z" data-name="Path 2182"/></g><g data-name="Group 733"><path fill="#34a853" d="M392 274a3 3 0 01-2-2.5 14.4 14.4 0 01-.3-2.2 36.7 36.7 0 00-.6-7 3.6 3.6 0 01.7-3c.7-4.6.5-9.1.5-13.7 0-2.3-.2-4.5-.4-6.8-.2-3-.6-6-.5-9.1a16.5 16.5 0 01.3-2.3 1.1 1.1 0 011-.8 2 2 0 01.2 0c5.6 0 11.2-.5 16.8-.4l6.2-.2c3.4 0 6.8-.5 10.2-.7h1.2a39.1 39.1 0 008.2-.7c3.4-.1 6.8-.3 10.3-.3l8.9-.1 3-.3c1.3-.1 2.5-.3 3.8-.3a71.2 71.2 0 0010.5-1.2c5.7-.1 11.3-.5 17 .3a2.5 2.5 0 001.2-.2c2.6-1 5.3-.6 8-.8a68.6 68.6 0 007.8-.7 13.6 13.6 0 003-.6 13.1 13.1 0 002 .4 5.2 5.2 0 014 2.4 14.5 14.5 0 00-.6 1.4 12.3 12.3 0 00-.3 2.3l.3 9.3a34.8 34.8 0 010 3.6 58 58 0 00-.1 11.6v.2c.2 3.4.5 6.7.5 10.1a3 3 0 00.2 1 12 12 0 01.3 5 .9.9 0 01-.8.8 4 4 0 01-1.3.1 23.5 23.5 0 00-6.8.5l-1.6.3a8.2 8.2 0 01-3.7 0 13.6 13.6 0 00-3.5-.2 68 68 0 01-8 0H485a37.7 37.7 0 01-5.3-.2 25 25 0 00-9.9.6l-8 .8h-3.1a16 16 0 00-2.7 0 77.8 77.8 0 01-9.4.6 16 16 0 00-5.7 0c-1.8.3-3.6.2-5.3.6a15.2 15.2 0 01-2.3.2c-1.2 0-2.5 0-3.7.3a51.5 51.5 0 01-13.2.5 32.3 32.3 0 00-6.5-.1l-7.2.4c-1 0-2 .3-3 .4-1.3.1-2.7.4-4-.3-1.2.8-2.4.8-3.8 1z" data-name="Path 2206"/><path fill="#34a853" d="M522.3 377.6l-1-2.5-1.5-3.6c-.5-1.2-.8-2.5-1.2-3.8l-1.2-2.9-2.6-7.4c-1-2.7-2-5.3-2.8-8-1.5-4.4-3.3-8.7-5-13l-6-14.1-3.8-10.3-3.6-9.1c-.9-2.1-2-4.1-2.8-6.2-1-2-1.7-4-2.5-6l-2.9-6.9-3.8-8.3a30.8 30.8 0 01-2.6-6.5c-.3-1.3-1.4-1.6-2.6-1l-5.5 2.4-11.2 4.7-3.6 1.4L446 280l-5.7 2-4.8 2c-3.3 1-6.5 2.3-9.7 3.6a25.3 25.3 0 00-2.8 1.3 1.8 1.8 0 00-1 2.1 14.7 14.7 0 00.5 1.8l1 2.5 2.9 6a4.4 4.4 0 011.4 2.2l4 8.4.9 2.3 3.1 8.4c1.2 3.2 2.5 6.3 3.6 9.5 1.3 3.3 2.5 6.7 3.6 10l1.9 5.7c.1.4.3.8 0 1.2a1.6 1.6 0 01-1.2-.4 35.4 35.4 0 00-6.8-2.9c-.6-.1-1-.4-1.6-.6l-3.7-1.2a53 53 0 00-6.1-1.1 34.4 34.4 0 00-6.6-.3c-3.7 0-7.3.6-11 1a90 90 0 00-12.3 2.1 73.4 73.4 0 00-13 4.7c-2.3 1-4.6 2.2-6.9 3.5a50.6 50.6 0 00-10 7.4 35.5 35.5 0 00-5.6 6.6 15 15 0 01-1.4 1.7l-.9 1a66.4 66.4 0 00-5.6 8 63.2 63.2 0 00-4.4 8.1 28 28 0 00-2 6.2 16.7 16.7 0 01-.5 1.8L344 400a30 30 0 00-.7 4.7l-1 8-.3 9.6a39.1 39.1 0 00.7 7.6l1.2 6.1a116.8 116.8 0 003.5 12.6c.5 1.7 1.3 3.2 2 4.8a67.9 67.9 0 005.3 10.5 27.2 27.2 0 004.1 5.2 47.9 47.9 0 005.4 4.8 73.7 73.7 0 006.3 4.4 2 2 0 001 .4c1.6 0 3-.7 3.5-2.5a17.7 17.7 0 012.7-5.4c1.6-2.2 2.9-4.7 4.3-7.1a18.8 18.8 0 012.5-4 23 23 0 013.2-5.5 27.4 27.4 0 012.5-4.9 41.7 41.7 0 013.8-5.8 79.3 79.3 0 014-7.1c2.4-4 4.8-7.9 7.6-11.6l5-8.2 1.1-1.7c0-.1.3 0 .4 0a.2.2 0 01.1 0l.3 1.9.2 5c0 4.5-.3 9-.1 13.6a61.8 61.8 0 010 7c-.4 6 .2 11.9.2 17.8l.3 4.2a5.3 5.3 0 01-.4 3 4.8 4.8 0 00-.3 2.7 47.6 47.6 0 01.5 5.8c0 1.7.7 3.2.9 4.9a34.2 34.2 0 003.8.3c4.2 0 8.4-.2 12.6-.4h2a55.8 55.8 0 008 0 32.3 32.3 0 014.2-.3h10.1c3 0 6.1 0 9.2-.2h1.6l11.4-.1c2.6-.2 5.1-.1 7.7 0h7.5c2.7-.1 5.5-.4 8.2-.7a11.9 11.9 0 001.9-.3 1.1 1.1 0 00.9-1.2 50 50 0 00-.3-5c-.4-2.6-.6-5.2-.7-7.8l-.4-10c-.2-5.4 0-10.8 0-16.2-.1-3.3-.3-24.6-.2-27.5v-2.5-5a4.8 4.8 0 000-1.2 2.1 2.1 0 00-1.5-1.6 5.7 5.7 0 00-2-.2c-3.3.2-6.4.6-9.6.7-4 .2-7.9 0-11.8 0a4.3 4.3 0 01-1 0c-.2 0-.2-.2-.3-.3a.2.2 0 010-.2 2.3 2.3 0 01.5-.4c2.8-1.7 5.9-3 8.8-4.4a33 33 0 014-1.6c2.2-.8 4.4-1.9 6.6-2.8l3.7-1.5 6.5-2.6 7.4-2.9a58 58 0 006.2-2.8 3.2 3.2 0 012.4-2.9 2.9 2.9 0 00.5-.3 1 1 0 00.6-1.2zm-57.6 23.7c-.4.5-.9.4-1.4.4h-7a42.2 42.2 0 00-6.7.2 7 7 0 01-.6 0c-4.4.3-8.8-.4-13.3.1a17.7 17.7 0 01-2.6.1 58.2 58.2 0 00-10.6.4 8 8 0 01-3 .1 3.7 3.7 0 01.3-.8 19.2 19.2 0 011.6-2.6 42.6 42.6 0 004.2-6.8c1-2 2.2-4 3.4-5.9l.6-.8a49.1 49.1 0 013.5-5.4l3.1-4.7 2.2-3 1.8-2.8c2.3-3.7 4.4-7.5 7-11l.6-1c.7.2.7.7 1 1.1 2.6 6.3 5 12.7 7.3 19.2l3 7.7 2.8 7.6 2.5 6.4a2.3 2.3 0 01.3 1.5z" data-name="Path 2207"/><path fill="#81c995" d="M368.4 456a6.8 6.8 0 00.9-.8l1.6-2.7 5-8.8q4.6-8 9.3-15.7c1.7-2.8 3.3-5.5 5.2-8a134 134 0 007.8-12.3l2.5-4.6c1.7-2.6 3.5-5.2 5.2-8 1.7-2.5 3.5-5.1 5-7.8a104.7 104.7 0 016-9.7l.7-1 1.9-3 6.7-9.8 1.7-2.8a.5.5 0 00-.2-.7l-.8-.3c-2.4-.8-5-.5-7.4-1.3a1.7 1.7 0 00-.6 0 118 118 0 00-18.3 2 68.7 68.7 0 00-8.4 2.5 5.1 5.1 0 00-.6.2c-3 1.4-6.2 2.3-8.9 4.4a18.8 18.8 0 01-1.7 1.1 29.8 29.8 0 00-7.3 6.4l-6.5 8.2a43.6 43.6 0 00-4.6 8.5l-.2.5a49.3 49.3 0 00-4 12.2c-.7 3.6-1 7.3-1.3 11v3.7a22 22 0 00.4 6.6v.6a31.4 31.4 0 001.4 6.3A72 72 0 00366 453c1 1 1 2.4 2.4 3z" data-name="Path 2208"/><path fill="#5bb974" d="M428.4 465a33 33 0 007.3.3 87 87 0 019.5-.4h15.4l17.8-.6a25.4 25.4 0 015 .2 10.4 10.4 0 002.3 0 .8.8 0 00.8-.8 2 2 0 00-.3-1.6c.2-4-.4-8-.4-12l.1-15.4a20 20 0 00-.1-2.2 86 86 0 01-.5-13.8 8.3 8.3 0 00-.1-1.2 6.8 6.8 0 00-1-.2l-3.6-.1c-2.2 0-4.4-.4-6.6 0a28.9 28.9 0 00-4.8 0H464l-8.7-.3a16.2 16.2 0 00-4 .3 15 15 0 01-5.3.3 33.7 33.7 0 00-6.6-.2 56.8 56.8 0 01-6.8.2H429c-.7 0-1 .3-1 1v4.8a19.8 19.8 0 00.3 2.5 25.6 25.6 0 01.5 8.2 32.5 32.5 0 00-.2 6.2v1.7a2.4 2.4 0 01-.4 1.6 4.5 4.5 0 00-.6 2.5V456.2c0 1.4.2 2.8.3 4.1a7.2 7.2 0 010 1.3 9.2 9.2 0 00.4 3.4z" data-name="Path 2209"/><path fill="#81c995" d="M502.2 368.8a8.6 8.6 0 00-.2-1l-2.6-7.2-2.4-7c-.8-2.3-1.7-4.7-2.7-7l-4.2-10.4L486 326l-3.3-8.1c-1.3-3.8-2.8-7.5-4.5-11.1l-4.6-10.5c-1-2.2-1.8-4.5-2.7-6.7a9 9 0 00-.6-1 7.3 7.3 0 00-2.9.6c-2.4 1-4.9 1.9-7.4 2.7-3.7 1.3-7.4 2.6-10.7 4.9a10.6 10.6 0 01-4.3 1.6c-.4 0-.6.3-1 .5l.8 1.8 1.2 2.9a1 1 0 010 1.1 1.2 1.2 0 00-.2 1.5l3 7.5 4.2 11.8a7.1 7.1 0 00.8 1.5 29.8 29.8 0 011.3 3 21.6 21.6 0 011.7 4.4c.7 2.7 1.8 5.3 2.6 7.9l2.7 8.3c1 3 2.3 6 3.4 9l2.4 6.6q1.8 4.4 3.3 8.8l1.8 4.5a8.3 8.3 0 00.5 1 8.7 8.7 0 001.3-.4c2.8-1 5.7-2 8.5-3.3 3.6-1.7 7.4-3 11-4.6l5.9-2.3a4.4 4.4 0 002-1.1z" data-name="Path 2210"/><path fill="#34a853" d="M530 150.2l-1 11.6c-.2 2-.7 4-1 6a72.7 72.7 0 01-4 12.3 37.6 37.6 0 01-2.2 5c-.9 1.5-1.5 3.2-2.3 4.8l-2.8 5.1c-1 1.8-2.2 3.5-3.4 5.2a59 59 0 01-6.1 7 31.9 31.9 0 01-3.5 3l-5.2 4a60.4 60.4 0 01-9.5 6.3 26.8 26.8 0 01-8.8 3l-2.7.6a41.7 41.7 0 01-8.9.5 76.6 76.6 0 01-10.3-1.1l-6.3-1a60 60 0 01-8.8-2.3 79.5 79.5 0 01-12-5.2 42.8 42.8 0 01-7.8-5 16.4 16.4 0 00-2-1.6 29.1 29.1 0 01-8.8-9l-2.5-3.7a39.5 39.5 0 01-4.3-8.3 118.8 118.8 0 01-5.6-18.3 75 75 0 01-1.4-9.8 45.5 45.5 0 01.1-4.8l.1-2.3V151l1.9-13.2a26.6 26.6 0 011-4.6l.8-2.2a100 100 0 016.7-15 54.6 54.6 0 018-11l2.6-2.4 6.4-5.3a25 25 0 016.7-4l5.7-2.1a33 33 0 018.5-1.9 32.3 32.3 0 0111-2 63.7 63.7 0 019.9.5l8.2 1.1.3.1 9.1 2.3a32 32 0 016.2 2.4c3.4 1.7 6.8 3.4 10.1 5.3a43.7 43.7 0 017 4.9c2.6 2.3 5 4.8 7.4 7.2a23.1 23.1 0 013 3.6 94 94 0 015.3 9.3 49.3 49.3 0 014.2 13.4c.3 2.1.7 4.2.9 6.4a38 38 0 010 6.4z" data-name="Path 2211"/><g fill="#fff" data-name="Group 525"><path d="M482 162.7c.5-.9 0-1.7.3-2.5a14.9 14.9 0 00.2-8.3c-.8-3.2-.9-6.5-1.3-9.7l-.7-4.1a1 1 0 00-1.1-1 65.1 65.1 0 00-7 .4 39.8 39.8 0 01-5.8.4l-2.7.1-2.3.2-7.4.2c-1 .1-1.4.4-1.6 1.4a20.9 20.9 0 00-.1 3.3c.1 5-.1 9.8-.5 14.7l-.2 4.1c-.1 2.3.1 2.3 2.1 2.3 2.8 0 5.7 0 8.5-.2 4.5-.1 8.9-.5 13.4-.7.6 0 1.3 0 2-.2a24.5 24.5 0 004.1-.4z" data-name="Path 2212"/><path d="M463 179.5h-8c-2.6 0-2.8 0-2.5 3l.8 6.7a24 24 0 003.3 10.2l2.6 4a16.2 16.2 0 009 6.8c2-2 4-4 5.3-6.4l4.2-8a13.7 13.7 0 001.2-3.4l2.2-10.8a21.6 21.6 0 00.2-2.3.7.7 0 00-.7-.8 13.4 13.4 0 00-1.4 0l-11.4.7-4.7.3z" data-name="Path 2213"/><path d="M416.3 140a4 4 0 00-.7 2.1c-.3 3.2-1.3 6.4-1.4 9.6a26.5 26.5 0 01-.2 3.4 24.4 24.4 0 00.5 7.6 1.8 1.8 0 001.7 1.6 17 17 0 002.3.1c2.8 0 5.7 0 8.5.2a38.2 38.2 0 007.4-.1c2.6-.3 2.4 0 2.6-2.5l.3-9.5.1-2.5.1-3 .1-5.5.2-1.6c0-.6-.3-1-.9-1a136.7 136.7 0 01-16 1 24.2 24.2 0 00-4.6.1z" data-name="Path 2214"/><path d="M495.9 136.4a6.9 6.9 0 00-.1 1.2c0 1 .3 2 .4 3l.5 6.1c.4 4.3.7 8.5.7 12.8a9.7 9.7 0 00.3 2.3 4.8 4.8 0 001.9.2c4 0 8-.4 12-.3a8.6 8.6 0 001.2 0 1 1 0 001-.8 24 24 0 00.4-2.5 87.2 87.2 0 00.7-10.5 51.2 51.2 0 00-1.3-10.9c-.2-.8-.6-1-1.5-1h-3a24.1 24.1 0 00-2.6 0 46.4 46.4 0 01-6.8 0 9.3 9.3 0 00-3.8.4z" data-name="Path 2215"/><path d="M476.7 121.3a2.2 2.2 0 00-.1-1.8 40 40 0 00-6.2-12.3 9.8 9.8 0 00-4.6-3.5c-1.3-.5-1.6-.5-2.4.6a1.7 1.7 0 00-.2.2l-4.1 6.6a34.8 34.8 0 00-3 6.9 33.5 33.5 0 00-.8 3.6c-.1.6.2 1 .8 1h3.3c5.6 0 11.2-.5 16.7-1a2.7 2.7 0 00.6-.3z" data-name="Path 2216"/><path d="M419.5 179.8a4.8 4.8 0 00.1 1 27.7 27.7 0 002.3 4.8l4.1 6.2a13.4 13.4 0 004.3 4.2l1.6 1c1.3 1 2.5 1.9 3.9 2.7l4.2 2.3a.6.6 0 00.9-.1l-.3-1.5-1.5-7.6a104.5 104.5 0 01-1.6-10.8 4 4 0 00-.8-2.2c-5.6.5-11.3-.2-17.2 0z" data-name="Path 2217"/><path d="M446.3 104.6l-.6-.1a25.8 25.8 0 00-9.8 4.4c-2.3 1.8-4.5 3.6-6.6 5.6a30.4 30.4 0 00-6.6 9 2.3 2.3 0 000 .7l1.4.1c5-.2 9.9-1 14.9-1.2.5 0 .8-.3 1-.9l1.3-5.8a39.3 39.3 0 012-5.7 3 3 0 011-1.3 1.8 1.8 0 00.8-1.4 5.3 5.3 0 01.8-2.3l.4-1z" data-name="Path 2218"/><path d="M493.1 198.4a1 1 0 001-.4l2.8-2.4a32.3 32.3 0 004.8-5.1c2.5-3.2 4-7 6.3-10.4-.5-.8.7-1.4.3-2.5a2.2 2.2 0 00-.7-.2l-9.1.3a8 8 0 00-1.4.2 3.2 3.2 0 00-.3.7l-.3 1.8-.7 4.5-.5 3.5a39.1 39.1 0 01-1.9 8 3.5 3.5 0 00-.3 2z" data-name="Path 2219"/><path d="M488.3 107.4c.7 2 1.5 3.6 2 5.4a14.5 14.5 0 00.7 2.5c.7 1.7 1 3.5 2 5.2h8.2l3.3-.3a3 3 0 00.8-.2 15.2 15.2 0 00-4-4.6l-2.6-2a48.6 48.6 0 00-7.3-5 5 5 0 00-3-1z" data-name="Path 2220"/></g><path fill="#c6ead3" d="M408.2 255.9a3.4 3.4 0 011.2.4 3.3 3.3 0 002.5.8h6.8c6 0 12-.8 18-1.3h.7c1.1-.1 2.3-.3 3.5-.3l9.7-.4c2 0 3.9-.2 5.8-.3l6-.3c3.2-.2 6.4-.6 9.6-1a53.4 53.4 0 017.3 0c3.2.2 6.3.2 9.4.2 2.4 0 4.7 0 7-.2.9 0 1.2-.3 1.2-1.2l-.2-2.9a73 73 0 010-8 12.2 12.2 0 000-4.1 2.1 2.1 0 00-2-.3 70 70 0 01-9.2.5l-4.2-.2c-3.3 0-6.7.2-10.1.4l-2 .2c-2.5.4-5 .8-7.5 1-1.8.3-3.7.3-5.5.4l-5.6.2a120.7 120.7 0 01-12.4 0h-.4l-5.7.6-3.3.3-3.7.2c-1.6.1-3.3.3-5 .3-1.7.1-3.4 0-5.1.2a41.3 41.3 0 01-7.7.3 2.1 2.1 0 00-1.7.5 3.5 3.5 0 00-.1 1.8l.1 6v6.5a.8.8 0 001.3.6l1.3-1z" data-name="Path 2221"/></g></svg>
