<?xml version="1.0"?>
<svg xmlns="http://www.w3.org/2000/svg" xmlns:xlink="http://www.w3.org/1999/xlink" xmlns:svgjs="http://svgjs.com/svgjs" version="1.1" width="512" height="512" x="0" y="0" viewBox="0 0 512 512" style="enable-background:new 0 0 512 512" xml:space="preserve" class=""><g transform="matrix(0.85,0,0,0.85,38.400000000000006,38.400000000000006)">
<g xmlns="http://www.w3.org/2000/svg">
	<g>
		<path d="M121,0v95c0,87.328,56.976,161.57,135,188.838C334.024,256.57,391,182.328,391,95V0H121z" fill="#ffffff" data-original="#000000" style="" class=""/>
	</g>
</g>
<g xmlns="http://www.w3.org/2000/svg">
	<g>
		<path d="M114.539,195.818C65.873,155.375,34.604,95.982,30.469,30H91V0H0v15c0,30.516,5.146,60.438,15.296,88.934    c9.81,27.541,24.061,53.146,42.357,76.104c27.078,33.978,62.272,60.793,101.734,78.017    C141.061,239.926,125.897,218.869,114.539,195.818z" fill="#ffffff" data-original="#000000" style="" class=""/>
	</g>
</g>
<g xmlns="http://www.w3.org/2000/svg">
	<g>
		<path d="M421,0v30h60.531c-4.135,65.982-35.404,125.375-84.07,165.818c-11.358,23.052-26.522,44.108-44.849,62.237    c39.462-17.224,74.656-44.039,101.734-78.017c18.297-22.958,32.548-48.563,42.357-76.104C506.854,75.438,512,45.516,512,15V0H421z    " fill="#ffffff" data-original="#000000" style="" class=""/>
	</g>
</g>
<g xmlns="http://www.w3.org/2000/svg">
	<g>
		<path d="M371,482V362h-85v-57.94c-6.527,2.986-13.229,5.697-20.103,8.099L256,315.618l-9.897-3.459    c-6.874-2.402-13.576-5.113-20.103-8.099V362h-85v120h-30v30h290v-30H371z M301,442h-90v-30h90V442z" fill="#ffffff" data-original="#000000" style="" class=""/>
	</g>
</g>
<g xmlns="http://www.w3.org/2000/svg">
</g>
<g xmlns="http://www.w3.org/2000/svg">
</g>
<g xmlns="http://www.w3.org/2000/svg">
</g>
<g xmlns="http://www.w3.org/2000/svg">
</g>
<g xmlns="http://www.w3.org/2000/svg">
</g>
<g xmlns="http://www.w3.org/2000/svg">
</g>
<g xmlns="http://www.w3.org/2000/svg">
</g>
<g xmlns="http://www.w3.org/2000/svg">
</g>
<g xmlns="http://www.w3.org/2000/svg">
</g>
<g xmlns="http://www.w3.org/2000/svg">
</g>
<g xmlns="http://www.w3.org/2000/svg">
</g>
<g xmlns="http://www.w3.org/2000/svg">
</g>
<g xmlns="http://www.w3.org/2000/svg">
</g>
<g xmlns="http://www.w3.org/2000/svg">
</g>
<g xmlns="http://www.w3.org/2000/svg">
</g>
</g></svg>
