<?xml version="1.0"?>
<svg xmlns="http://www.w3.org/2000/svg" xmlns:xlink="http://www.w3.org/1999/xlink" xmlns:svgjs="http://svgjs.com/svgjs" version="1.1" width="512" height="512" x="0" y="0" viewBox="0 0 512 512" style="enable-background:new 0 0 512 512" xml:space="preserve" class=""><g transform="matrix(0.8500000000000001,0,0,0.8500000000000001,38.39999999999998,38.39999999999998)">
<g xmlns="http://www.w3.org/2000/svg">
	<g>
		<path d="M400,188h-36.037v-82.23c0-58.322-48.449-105.77-108-105.77c-59.551,0-108,47.448-108,105.77V188H112    c-33.084,0-60,26.916-60,60v204c0,33.084,26.916,60,60,60h288c33.084,0,60-26.916,60-60V248C460,214.916,433.084,188,400,188z     M187.963,105.77c0-36.266,30.505-65.77,68-65.77s68,29.504,68,65.77V188h-136V105.77z M420,452c0,11.028-8.972,20-20,20H112    c-11.028,0-20-8.972-20-20V248c0-11.028,8.972-20,20-20h288c11.028,0,20,8.972,20,20V452z" fill="#ffffff" data-original="#000000" style=""/>
	</g>
</g>
<g xmlns="http://www.w3.org/2000/svg">
	<g>
		<path d="M256,286c-20.435,0-37,16.565-37,37c0,13.048,6.76,24.51,16.963,31.098V398c0,11.045,8.954,20,20,20    c11.045,0,20-8.955,20-20v-43.855C286.207,347.565,293,336.08,293,323C293,302.565,276.435,286,256,286z" fill="#ffffff" data-original="#000000" style=""/>
	</g>
</g>
<g xmlns="http://www.w3.org/2000/svg">
</g>
<g xmlns="http://www.w3.org/2000/svg">
</g>
<g xmlns="http://www.w3.org/2000/svg">
</g>
<g xmlns="http://www.w3.org/2000/svg">
</g>
<g xmlns="http://www.w3.org/2000/svg">
</g>
<g xmlns="http://www.w3.org/2000/svg">
</g>
<g xmlns="http://www.w3.org/2000/svg">
</g>
<g xmlns="http://www.w3.org/2000/svg">
</g>
<g xmlns="http://www.w3.org/2000/svg">
</g>
<g xmlns="http://www.w3.org/2000/svg">
</g>
<g xmlns="http://www.w3.org/2000/svg">
</g>
<g xmlns="http://www.w3.org/2000/svg">
</g>
<g xmlns="http://www.w3.org/2000/svg">
</g>
<g xmlns="http://www.w3.org/2000/svg">
</g>
<g xmlns="http://www.w3.org/2000/svg">
</g>
</g></svg>
