<?xml version="1.0"?>
<svg xmlns="http://www.w3.org/2000/svg" xmlns:xlink="http://www.w3.org/1999/xlink" xmlns:svgjs="http://svgjs.com/svgjs" version="1.1" width="512" height="512" x="0" y="0" viewBox="0 0 512 512" style="enable-background:new 0 0 512 512" xml:space="preserve" class=""><g transform="matrix(0.8500000000000001,0,0,0.8500000000000001,38.39999999999998,38.39993562698362)"><g xmlns="http://www.w3.org/2000/svg" id="Solid"><path d="m182.461 155.48 49.539-49.539v262.059a24 24 0 0 0 48 0v-262.059l49.539 49.539a24 24 0 1 0 33.941-33.941l-90.509-90.51a24 24 0 0 0 -33.942 0l-90.509 90.51a24 24 0 1 0 33.941 33.941z" fill="#ffffff" data-original="#000000" style="" class=""/><path d="m464 232a24 24 0 0 0 -24 24v184h-368v-184a24 24 0 0 0 -48 0v192a40 40 0 0 0 40 40h384a40 40 0 0 0 40-40v-192a24 24 0 0 0 -24-24z" fill="#ffffff" data-original="#000000" style="" class=""/></g></g></svg>
